<svg width="1200" height="350" viewBox="0 0 1200 350" fill="none" xmlns="http://www.w3.org/2000/svg">
  <!-- Background -->
  <defs>
    <linearGradient id="grad1" x1="0%" y1="0%" x2="100%" y2="100%">
      <stop offset="0%" style="stop-color:#1a1a1a;stop-opacity:1" />
      <stop offset="100%" style="stop-color:#0d0d0d;stop-opacity:1" />
    </linearGradient>
    <filter id="dropshadow" height="130%">
      <feGaussianBlur in="SourceAlpha" stdDeviation="3"/>
      <feOffset dx="2" dy="2" result="offsetblur"/>
      <feComponentTransfer>
        <feFuncA type="linear" slope="0.5"/>
      </feComponentTransfer>
      <feMerge> 
        <feMergeNode/>
        <feMergeNode in="SourceGraphic"/> 
      </feMerge>
    </filter>
  </defs>
  <rect width="1200" height="350" rx="15" fill="url(#grad1)"/>
  
  <!-- Decorative Accent -->
  <path d="M0 340 L1200 340 L1200 350 L0 350 Z" fill="#D4AF37"/>
  
  <!-- Logo Container (Scaled and Translated) -->
  <g transform="translate(50, 25) scale(0.14)">
    <g filter="url(#dropshadow)">
        <path d="M935.444 2053.33C900.154 2052.19 894.022 2050.08 888.001 2037C880.051 2019.75 871.788 1968.07 869.45 1920.98L868.711 1906.09L870.642 1905.36C884.693 1900.02 907.911 1913.44 943.728 1947.58C957.1 1960.32 971.003 1972.74 974.624 1975.16L981.207 1979.58L988.77 1980.04C1010.59 1981.38 1010.13 1981.77 1153.05 1842.04C1181.19 1814.53 1210.17 1786.56 1217.44 1779.89C1224.71 1773.21 1232.72 1765.33 1235.22 1762.36C1237.73 1759.4 1245.65 1750.92 1252.82 1743.53C1296.64 1698.36 1316.91 1656.43 1318.87 1606.85L1319.61 1588.17L1324.15 1584.95C1326.65 1583.18 1336.81 1577.08 1346.74 1571.39C1468.69 1501.44 1547.78 1412.68 1606.49 1279.85C1630.36 1225.84 1647.83 1152.78 1651.87 1090.08C1654.69 1046.32 1654.67 1047.22 1653.37 1020.71C1652.18 996.206 1651.96 993.105 1650.57 981.16C1649.99 976.14 1649.54 963.539 1649.56 953.158L1649.61 934.283L1654.21 925.168C1656.73 920.154 1663.51 909.481 1669.27 901.449C1675.03 893.417 1684.79 879.452 1690.97 870.416C1701.41 855.139 1720.88 827.866 1726.52 820.624C1739.73 803.677 1745.9 795.548 1763.59 771.782C1796.48 727.628 1797.83 726.855 1806.15 747.503C1808.17 752.523 1812.1 761.451 1814.87 767.343C1817.64 773.234 1822.88 785.282 1826.52 794.116C1844.6 838.027 1848.69 844.582 1862.54 851.839C1876.04 858.915 1909.33 867.173 1944.72 872.222C2021.14 883.124 2032.2 889.615 2035.14 925.285C2038.41 964.916 2040.08 1006.15 2040 1045.77C2039.81 1142.08 2036.63 1173.95 2026.08 1185.43C2018.98 1193.15 1992.43 1201.92 1946.57 1211.71C1935.4 1214.1 1921.57 1217.1 1915.82 1218.4C1910.07 1219.69 1898.9 1222.15 1891.02 1223.85C1864.61 1229.57 1847.55 1235.75 1841.01 1241.97C1833.42 1249.18 1833.84 1248.23 1816.77 1297.57C1801.02 1343.11 1787.34 1375.63 1766.06 1418.05L1751.71 1446.65L1751.22 1455.37C1750.52 1467.74 1751.26 1469.21 1773.08 1498.98C1783.88 1513.7 1797.24 1532.32 1802.77 1540.35C1820.14 1565.57 1828.61 1577.63 1839.14 1592.18C1853.23 1611.61 1858 1620.95 1858 1629.05V1635.42L1853.62 1642.62C1835.14 1672.97 1821.95 1687.11 1712.23 1794.09C1647.91 1856.8 1647.37 1857.04 1619.68 1836.38C1591.6 1815.43 1555.45 1790.92 1533.26 1777.8C1476.33 1744.12 1474.63 1743.82 1438.55 1760.94C1412.85 1773.13 1401.22 1778.35 1383.81 1785.51C1365.13 1793.2 1310.98 1813.34 1292.17 1819.61C1272.41 1826.19 1261.61 1831.94 1253.82 1840.02L1246.88 1847.22L1244.38 1855.64C1243 1860.27 1240.13 1871.46 1237.99 1880.49C1235.85 1889.53 1228.58 1918.55 1221.83 1944.99C1215.08 1971.43 1208.25 1998.27 1206.65 2004.62C1199.57 2032.72 1192.89 2043.24 1177.77 2050.12L1172.23 2052.64L1157.47 2052.89C1104.93 2053.79 958.476 2054.08 935.444 2053.33ZM132.589 2001.86C134.675 1986.8 164.79 1911.78 183.259 1875.63C195.922 1850.84 215.669 1815.02 224.053 1801.64C280.032 1712.26 320.313 1662.98 359.414 1636.04C368.385 1629.86 367.779 1629.33 352.695 1630.21C316.544 1632.31 251.669 1652.35 234.333 1666.77C227.774 1672.23 182.637 1694.64 182.637 1692.44C182.637 1684.84 200.683 1634.13 209.475 1617.02C240.484 1556.7 276.881 1516.28 339.471 1472.66C373.846 1448.7 379.107 1447.09 386.68 1458.21C388.966 1461.56 410.548 1483.34 434.64 1506.59C458.732 1529.85 495.609 1565.59 516.589 1586.02C596.973 1664.32 619.824 1686.2 646.722 1710.67C667.394 1729.47 667.95 1731.28 658.95 1750.36C637.293 1796.27 561.994 1875.54 512.526 1904.49C493.142 1915.84 447.553 1934.89 445.246 1932.61C444.988 1932.35 448.091 1926.41 452.139 1919.4C485.612 1861.46 496.001 1819.72 489.983 1767.37L488.58 1755.16L483.121 1762.15C455.615 1797.37 382.879 1864.14 340.852 1892.76C335.523 1896.39 326.666 1902.48 321.171 1906.3C275.627 1937.97 193.359 1982.77 142.659 2003.53C131.681 2008.02 131.735 2008.03 132.589 2001.86ZM976.39 1881.41C974.019 1878.34 966.564 1844.45 960.665 1809.91C942.47 1703.38 907.732 1627.49 835.063 1535.49C811.469 1505.61 812.741 1510.22 821.962 1488.02C830.436 1467.62 846.085 1421.24 862.817 1366.94C865.395 1358.57 870.942 1341.32 875.143 1328.6C889.46 1285.27 894.996 1263.28 892.638 1259.11L891.59 1257.25L887.142 1262.12C884.696 1264.8 880.378 1271.82 877.546 1277.72C874.714 1283.62 867.683 1298.03 861.921 1309.74C845.102 1343.93 835.845 1363.17 830.887 1374.24C828.339 1379.93 818.677 1400.74 809.417 1420.48C792.792 1455.93 757.689 1535.75 745.731 1565.3C730.414 1603.15 712.423 1632.23 704.331 1632.23H701.243L639.675 1571.83C605.812 1538.61 562.938 1496.58 544.399 1478.43C458.581 1394.42 453.258 1382.23 493.425 1361.75C515.187 1350.66 536.758 1342.15 594.712 1321.82C623.809 1311.62 641.112 1304.29 670.977 1289.51C743.535 1253.6 884.219 1162.26 893.085 1145.3L894.937 1141.76L893.035 1141.03C889.939 1139.86 865.104 1150.7 843.164 1162.8C821.361 1174.83 813.936 1178.63 778.21 1196.04C723.5 1222.71 696.945 1234.05 665.442 1244.19C646.757 1250.2 625.45 1256.17 620.098 1256.9C617.299 1257.28 611.158 1258.4 606.451 1259.4C578.887 1265.22 569.835 1262.92 531.363 1240.3C476.961 1208.31 461.138 1199.19 446.488 1191.38C438.37 1187.05 426.745 1180.82 420.657 1177.53C393.961 1163.1 327.571 1133.58 270.436 1110.73C253.337 1103.89 247.523 1101.38 233.685 1094.84C220.759 1088.73 217.079 1086.18 217.079 1083.33C217.079 1081.73 217.6 1081.13 218.499 1081.68C219.412 1082.23 219.584 1082.01 218.979 1081.04C217.761 1079.09 219.313 1077.5 253.981 1045.27C301.811 1000.79 333.49 970.622 378.834 926.356C438.653 867.959 456.428 857.282 507.377 849.139C517.541 847.515 587.533 844.709 642.685 843.716C675.498 843.125 704.005 842.319 706.034 841.925C712.845 840.603 717.05 840.089 726.946 839.373C740.406 838.398 742.518 837.966 755.507 833.531L766.846 829.659L768.746 831.538L770.645 833.417L768.964 838.944C766.996 845.412 760.046 857.635 735.154 898.406C713.308 934.187 704.485 950.132 693.317 974.016C686.576 988.431 681.587 1002.3 682.34 1004.54C683.528 1008.07 704.343 985.012 759.287 919.32C764.502 913.086 771.848 904.324 775.613 899.849C784.383 889.423 798.772 871.585 820.432 844.284C829.903 832.346 844.572 814.259 853.029 804.092C861.485 793.924 873.11 779.929 878.86 772.991C916.33 727.783 947.748 691.229 973.462 662.924C990.163 644.54 995.4 638.958 1016.84 616.68C1023.28 609.987 1030.99 601.789 1033.97 598.463C1036.95 595.138 1041.88 589.887 1044.92 586.796C1165.11 464.765 1174.61 455.44 1213.54 421.253C1223.65 412.378 1267.53 376.807 1276.2 370.47C1279.23 368.251 1290.05 360.311 1300.25 352.824C1310.45 345.338 1323.92 335.653 1330.2 331.302C1336.48 326.952 1347.68 319.188 1355.09 314.05C1362.5 308.911 1377.8 297.912 1389.1 289.606C1400.4 281.3 1417.11 269.685 1426.24 263.795C1435.38 257.905 1444.79 251.834 1447.16 250.305C1490.84 222.098 1590.47 168.301 1621.27 156.296C1624.62 154.99 1638.16 149.438 1651.35 143.958C1689.52 128.101 1730.92 113.157 1758.37 105.333C1831.14 84.5831 1902.55 71.0124 1940.19 70.779L1954.51 70.6901L1956.85 73.5195L1959.18 76.3489L1958.46 106.773C1957.81 134.263 1956.14 152.784 1952.78 170.055C1952.12 173.402 1951.3 178.177 1950.94 180.667C1947.1 207.25 1930.17 281.771 1921.84 308.789C1894.19 398.39 1873.8 445.254 1814.34 555.832C1808 567.623 1797.41 585.303 1766.98 634.934C1742.36 675.08 1702.54 732.008 1675.89 765.149C1633.23 818.202 1599.49 857.028 1544.95 915.817C1538.18 923.11 1528.14 934.132 1522.64 940.311C1509.05 955.574 1419.53 1049.87 1405.9 1063.28C1372.83 1095.82 1318.93 1146.66 1262.66 1198.39C1213.26 1243.79 1194.69 1261.63 1132.15 1323.74C1091.91 1363.7 1087.06 1368.87 1088.46 1370.26C1091.08 1372.85 1167.09 1325.61 1210.37 1294.49C1222.76 1285.58 1240.53 1274.32 1244.48 1272.88C1249.06 1271.21 1249.55 1275.64 1249.64 1319.48C1249.73 1360.41 1248.01 1455.65 1247.16 1457.12C1246.92 1457.52 1246.62 1470.11 1246.49 1485.11C1246.35 1500.1 1245.84 1520.85 1245.35 1531.23C1244.86 1541.6 1244.1 1558.85 1243.66 1569.56C1241.19 1629.31 1235.43 1647.59 1209.15 1679.09C1192.65 1698.86 1139.52 1750.47 1108.18 1777.17C1100.01 1784.14 1087.81 1794.55 1081.07 1800.32C1074.33 1806.09 1063.12 1815.3 1056.15 1820.8C1049.18 1826.29 1038.41 1835.27 1032.21 1840.76C998.013 1871.03 979.047 1884.84 976.39 1881.41ZM1258.08 970.921C1331.55 951.67 1378.13 889.053 1375.39 813.219L1374.71 794.356L1371.56 782.985C1344.3 684.418 1236.98 636.986 1151.24 685.62C1011.04 765.155 1065.89 977.85 1225.74 974.502L1246.04 974.077L1258.08 970.921ZM1604.5 695.011C1619.63 674.398 1642.4 634.099 1659.76 597.208C1677.34 559.858 1687.53 522.833 1691.24 482.814C1697.48 415.629 1691.43 370.88 1673.81 353.709C1648.3 328.858 1569.69 331.359 1498.86 359.275C1483.7 365.253 1433.26 387.373 1427.47 390.582C1425.11 391.896 1415.42 396.973 1405.95 401.865C1372.5 419.14 1351.48 431.131 1334.31 442.733C1330.09 445.585 1325.94 448.166 1325.08 448.467C1324.23 448.768 1323.94 449.442 1324.43 449.965C1324.92 450.488 1346.51 444.018 1372.4 435.588C1468.36 404.347 1492.81 400.838 1543.72 411.007C1606.79 423.606 1623.89 438.045 1631.77 485.348L1634.39 501.068L1633.71 527.233C1632.5 574.44 1619.63 637.799 1599.75 694.452C1595.94 705.297 1596.87 705.406 1604.5 695.011ZM222.614 1227.6C209.173 1225.24 193.274 1221.44 174.054 1216C152.129 1209.79 142.746 1207.81 87.9206 1197.84C48.9068 1190.75 46.8837 1188.43 44.8766 1148.49C44.1702 1134.44 43.3845 1121.29 43.1306 1119.28C42.8767 1117.28 42.25 1106.87 41.7378 1096.16C41.2257 1085.45 40.6601 1075.32 40.481 1073.65C39.8125 1067.41 39.8513 1008.05 40.5323 995.155C43.5265 938.472 44.737 922.521 46.8448 911.97C51.5973 888.18 59.6954 883.146 107.829 874.057C255.283 846.213 255.287 846.211 273.059 789.488C276.834 777.44 282.982 758.639 286.722 747.707C293.571 727.689 296.391 720.52 313.613 679.353C336.434 624.804 336.441 624.968 309.174 580.053C301.82 567.94 295.804 557.686 295.804 557.267C295.804 556.848 289.438 545.57 281.658 532.205C273.878 518.84 267.512 507.603 267.512 507.235C267.512 506.866 263.6 500.126 258.819 492.256C254.038 484.385 246.724 471.144 242.566 462.83L235.005 447.715L234.535 440.317L234.065 432.919L240.025 424.928C254.309 405.778 336.59 321.601 368.993 292.988C376.435 286.416 386.952 277.095 392.365 272.273C452.85 218.394 444.129 219.254 506.147 261.052C609.346 330.604 612.68 331.667 658.676 309.673C669.163 304.658 687.43 295.918 699.269 290.25C734.754 273.262 771.598 258.35 807.516 246.439C842.574 234.812 844.149 233.154 849.984 201.696C855.834 170.157 856.849 165.269 863 139.022C878.995 70.7672 890.161 45.0569 905.307 41.605C912.44 39.9793 957.803 37.722 1014.78 36.1573C1044.79 35.3333 1149.55 37.9145 1170.15 39.9855L1176.69 40.642L1182.92 45.7174C1189.92 51.4211 1193.27 56.7464 1197.95 69.5611C1204.99 88.8699 1207.69 99.7721 1218.92 154.234C1228.49 200.586 1236.05 218.185 1254.97 238.085C1267.57 251.346 1271.25 257.757 1271.25 266.412C1271.25 276.281 1271.48 276.078 1215.29 317.368C1181.34 342.311 1169.48 351.504 1137.79 377.444C1122.66 389.832 1101.12 405.504 1095.38 408.302L1089.82 411.013L1067.68 410.499C1006.81 409.085 984.561 410.503 938.269 418.747C880.571 429.022 808.341 454.549 754.33 483.752C749.095 486.583 741.608 490.627 737.691 492.738C687.477 519.815 632.486 563.783 587.506 612.819C547.573 656.353 534.367 674.524 501.119 731.683C484.842 759.663 479.971 763.752 445.873 778.051C403.928 795.641 383.912 809.637 338.241 853.316C329.446 861.728 310.349 879.795 295.804 893.467C264.423 922.961 235.842 951.319 218.902 969.769C189.052 1002.28 176.222 1016.64 163.57 1031.72C156.128 1040.58 140.906 1057.8 129.743 1069.99C118.58 1082.17 107.672 1094.89 105.503 1098.27L101.559 1104.4L103.312 1107.75C110.12 1120.78 147.917 1146.9 196.167 1171.93C232.578 1190.81 241.68 1200.35 241.68 1219.64C241.68 1229.58 239.376 1230.55 222.614 1227.6Z" fill="#F0FFFF"/>
    </g>
  </g>
  
    <!-- Text -->
    <text x="400" y="200" font-family="'Segoe UI', Roboto, Helvetica, Arial, sans-serif" font-weight="bold" font-size="80" fill="white" letter-spacing="5">NOSTROMO</text>
    <text x="405" y="250" font-family="'Segoe UI', Roboto, Helvetica, Arial, sans-serif" font-weight="300" font-size="30" fill="#D4AF37" letter-spacing="8">CORE SYSTEM</text>
    <text x="405" y="290" font-family="'Segoe UI', Roboto, Helvetica, Arial, sans-serif" font-size="14" fill="#888888">Albornoz Accounting System</text>
    
</svg>
