<svg fill="none" viewBox="0 0 800 200" width="800" height="200" xmlns="http://www.w3.org/2000/svg">
  <style>
    @import url('https://fonts.googleapis.com/css2?family=JetBrains+Mono:wght@400;500;600;700&amp;display=swap');
    
    .letter {
      opacity: 0;
      animation: reveal 0.1s forwards;
    }
    
    @keyframes reveal {
      to { opacity: 1; }
    }
    
    .logo-path {
      fill: none;
      stroke: #ffffff;
      stroke-width: 8;
      stroke-dasharray: 15000;
      stroke-dashoffset: 15000;
      animation: draw-logo 3s ease-out forwards, fill-logo 0.5s 3s forwards;
    }
    
    @keyframes draw-logo {
      to {
        stroke-dashoffset: 0;
      }
    }
    
    @keyframes fill-logo {
      to {
        fill: #ffffff;
        stroke-width: 0;
      }
    }
  </style>
  
  <!-- Background -->
  <rect width="800" height="200" fill="#0a0a0a"/>
  
  <!-- Subtle noise texture -->
  <filter id="noise">
    <feTurbulence type="fractalNoise" baseFrequency="0.8" numOctaves="4" stitchTiles="stitch"/>
    <feColorMatrix type="saturate" values="0"/>
  </filter>
  <rect width="800" height="200" filter="url(#noise)" opacity="0.03"/>
  
  <!-- Nostromo Logo (favicon2) - scaled and positioned -->
  <g transform="translate(60, 30) scale(0.12)">
    <path class="logo-path" d="M553.26 1519.026c-13.886-3.297-24.191-17.837-23.016-32.474 2.502-31.177 41.913-39.784 58.512-12.778l2.744 4.464 81-.66c103.125-.842 100.383-.63 100.478-7.745.012-.916.36-1.816.772-2 .633-.28 7.538-13.794 14.989-29.333 1.054-2.2 5.145-10.376 9.09-18.17 3.944-7.793 7.171-14.655 7.171-15.25 0-.594.45-1.08 1-1.08s1-.472 1-1.05c0-.576 19.839-40.851 44.086-89.5l44.087-88.45 41.663-.01c22.915 0 50.036-.296 60.268-.65l18.603-.647 3.976 5.401c4.99 6.78 11.109 15.32 18.817 26.267l6 8.52 99.5.307 99.5.307 15.153 30.5c8.334 16.775 17.952 36.35 21.373 43.5 3.422 7.15 14.153 29.096 23.847 48.77l17.627 35.768 39.13-.062 39.129-.062 3.918-4.707c5.207-6.257 16.637-22.24 16.182-22.63-.197-.171-6.434-.596-13.859-.945a1265 1265 0 0 1-27-1.622c-7.425-.542-19.695-1.263-27.266-1.602l-13.766-.615-3.875-6.647c-2.13-3.655-19.419-37.471-38.418-75.146l-34.543-68.5-102.198-.255-102.198-.255-5.84-6.098c-6.834-7.138-10.873-13.027-17.416-25.392-2.62-4.95-5.261-9.33-5.871-9.735-2.094-1.388-148.402-.914-149.61.485-.594.687-19.725 38.375-42.513 83.75a193457 193457 0 0 1-60.69 120.75L755.54 1442H527.016l1.7-4.25c1.708-4.27 26.716-55.146 36.744-74.75l5.371-10.5 93.16-.5 93.159-.5 4.356-8.5a1909 1909 0 0 0 9.798-19.5c2.994-6.05 16.686-33.343 30.427-60.65 13.741-27.309 25.23-50.596 25.533-51.75l.549-2.1h11.085l-.497-7.155c-.273-3.936-.914-7.935-1.424-8.888l-.927-1.732-10.275.473c-11.892.548-10.748-.137-15.687 9.383a5529 5529 0 0 1-8.566 16.419c-7.286 13.904-23.521 45.43-37.592 73-7.017 13.75-14.246 27.813-16.064 31.25l-3.306 6.25H527.497l-2.367 4.462c-11.14 20.999-39.09 24.204-52.645 6.038-10.393-13.928-9.631-29.332 2.026-40.989 14.752-14.752 42.528-10.593 50.139 7.507l1.22 2.9 20.315.291c45.693.654 181.894.81 184.28.21 2.367-.594 26.983-47.914 40.013-76.919 1.483-3.3 3.188-6.9 3.79-8 6.263-11.441 94.696-190.51 95.33-193.031l.619-2.469h50.607l.716-4.237c.394-2.33 1.36-6.043 2.147-8.25 5.806-16.279 2.064-22.463-8.507-14.06l-4.32 3.435-28.567.082c-31.798.091-29.625-.237-31.924 4.823-.927 2.039-8.15 16.894-16.053 33.012-7.902 16.117-14.061 29.799-13.687 30.404.388.628.224.819-.382.444-.81-.501-88.909 174.13-103.47 205.097l-1.997 4.25h-77.723c-81.285 0-79.453.08-78.032-3.35.49-1.182 3.332-9.8 6.315-19.15s7.103-21.275 9.157-26.5 5.003-13.325 6.553-18 4.7-13.675 7-20c3.973-10.923 16.851-48.64 21-61.5 2.579-7.996 2.477-9.126-1.148-12.751-14.557-14.557-11.104-41.623 6.227-48.802 1.579-.654 2.871-1.513 2.871-1.908 0-3.316 18.901-3.601 25.682-.388 24.592 11.654 22.484 59.265-2.628 59.355-.855 0-3.142.447-5.083.986-4.298 1.194-3.753-.09-19.332 45.508-3.57 10.45-8.144 23.5-10.164 29s-4.938 13.6-6.483 18c-1.546 4.4-4.92 13.85-7.5 21-2.577 7.15-5.062 14.238-5.52 15.75l-.832 2.75h117.749l10.663-21.75c11.238-22.921 12.126-24.708 33.912-68.25 7.568-15.125 17.807-35.6 22.752-45.5 23.151-46.343 37.336-74.755 53.586-107.332l17.623-35.332 27.17.332 27.17.332 15.981-31.5c15.102-29.766 83.794-165.937 101.126-200.466l8.014-15.965 1.124 2.965c1.168 3.078 40.144 81.002 45.104 90.174 1.549 2.865 8.906 17.265 16.349 32 7.442 14.736 16.037 31.517 19.098 37.292s10.474 20.175 16.471 32c5.998 11.825 14.773 28.925 19.5 38s12.246 23.7 16.707 32.5 10.958 21.243 14.437 27.65c3.478 6.408 6.324 12.193 6.324 12.855 0 2.585-44.826 50.621-46.009 49.304-1.257-1.4-22.377-42.968-65.926-129.755-49.528-98.702-43.227-88.85-48.472-75.8-1.05 2.61-6.619 14.196-12.376 25.746-15.31 30.715-15 28.666-5.412 35.691 7.428 5.444 32.993 26.818 36.146 30.22l2.45 2.645-9.207 18.222a3705 3705 0 0 1-18.076 35.222c-4.877 9.35-11.556 22.175-14.84 28.5s-9.416 18.094-13.625 26.154c-4.21 8.059-7.653 15.147-7.653 15.75 0 .786 23.471 1.096 83.016 1.096h83.016l10.234-10.376c5.629-5.708 12.934-13.664 16.234-17.682s8.658-10.147 11.907-13.622l5.907-6.317 1.198 1.749c.658.961 9.079 17.273 18.711 36.248 9.633 18.975 22.619 44.4 28.858 56.5 14.136 27.414 22.919 45.24 22.919 46.52 0 .633-31.018.98-87.515.98h-87.514l-3.454-3.25c-3.217-3.027-4.903-5.705-14.274-22.681-1.953-3.537-6.184-10.504-9.403-15.48-3.22-4.978-5.7-9.51-5.513-10.07.224-.672 19.498-1.107 56.571-1.277l56.232-.259-.67-2.241c-.367-1.233-1.836-4.267-3.264-6.742-1.429-2.475-3.417-6.188-4.42-8.25l-1.823-3.75H940.02l9.854-19.25c10.607-20.723 19.394-37.634 27.407-52.75 2.77-5.225 10.07-19.4 16.222-31.5s13.072-25.447 15.379-29.66l4.194-7.658-8.788-7.13c-9.32-7.563-10.041-8.157-17.978-14.796-6.074-5.081-5.232-5.769-13.22 10.785l-6.01 12.459 4.832 4.336 4.833 4.336-4.922 9.058c-2.708 4.983-10.915 20.807-18.24 35.165s-16.238 31.73-19.807 38.605c-3.57 6.875-12.014 23.3-18.766 36.5s-13.341 25.928-14.643 28.285c-1.301 2.357-2.366 4.47-2.366 4.696s28.06.322 62.356.214l62.356-.195 4.528 7.5c2.49 4.125 11.835 19.65 20.766 34.5 18.114 30.118 17.725 29.576 21.658 30.222 1.56.256 47.836.678 102.836.938s100.31.78 100.689 1.156 6.274 11.709 13.1 25.184c6.827 13.475 14.788 29 17.69 34.5 2.904 5.5 12.353 23.95 21 41 8.645 17.05 17.74 34.825 20.212 39.5l4.492 8.5 33.659.263c18.512.145 33.658-.01 33.658-.339 0-.331-4.351-9.224-9.67-19.763-23.382-46.336-79.922-158.924-83.69-166.654-2.277-4.67-8.912-17.945-14.743-29.5-5.832-11.554-32.546-64.657-59.363-118.007-26.818-53.35-49.103-97.45-49.524-98s-5.39-10.225-11.045-21.5-13.744-27.025-17.975-35-14.125-27.1-21.986-42.5-14.62-28.45-15.02-29-6.923-13.15-14.495-28c-7.573-14.85-15.793-30.825-18.268-35.5s-7.757-14.8-11.739-22.5a12634 12634 0 0 0-50.425-96.5c-3.918-7.425-9.68-18.793-12.804-25.262-6.925-14.344-5.785-14.78-16.54 6.33-27.168 53.328-63.41 123.885-85.488 166.432-46.802 90.192-147.199 290.35-206.906 412.5-6.855 14.025-13.875 28.2-15.6 31.5a452 452 0 0 0-6.116 12.25l-2.98 6.25h-69.64l5.539-11.25c3.046-6.188 6.029-12.117 6.628-13.177C636.854 1210.555 759 966.023 806.766 870c23.666-47.575 67.36-135.444 97.1-195.264l54.07-108.764 63.46.043 63.46.042 4.18 8.722c5.929 12.367 79.391 159.586 82.945 166.221 1.62 3.025 7.626 14.95 13.344 26.5s50.96 101.928 100.536 200.84S1376 1148.777 1376 1149.507s.36 1.476.8 1.66 9.709 18.333 20.596 40.333c10.886 22 20.133 40.675 20.549 41.5s2.135 4.2 3.822 7.5c1.686 3.3 9.336 18.6 17 34 7.665 15.4 18.209 36.55 23.432 47a6453 6453 0 0 1 15.637 31.5c3.378 6.875 6.995 14.075 8.038 16 1.784 3.291 5.082 9.88 20.774 41.5a4072 4072 0 0 0 10.902 21.802c2.447 4.842 4.45 9.004 4.45 9.25s-47.923.448-106.496.448h-106.497l-5.505-11.25c-3.028-6.188-6.169-12.375-6.98-13.75s-7.606-15.1-15.1-30.5-17.352-35.65-21.907-45a34200 34200 0 0 1-18.354-37.75L1231.09 1283l-98.295-.038-98.295-.038-2.603-3.712c-5.533-7.89-23.044-31.811-24.678-33.712l-1.719-2-49.148.268-49.148.269-34.489 69.231a139741 139741 0 0 0-62.209 125.047c-21.982 44.262-28.21 56.002-30.086 56.715-1.3.495-25.158.923-53.016.952s-50.967.248-51.355.487c-.387.24-18.24.502-39.673.583-46.506.176-43.493-.225-47.466 6.311-7.848 12.912-21.666 18.983-35.65 15.663m15.392-22.169c6.749-6.34 4.186-16.477-4.774-18.89-6.353-1.71-13.248 2.558-13.9 8.606-1.158 10.724 11.05 17.447 18.674 10.284m-66.005-168.322c8.555-5.992 4.901-20.535-5.159-20.535-10.587 0-15.514 10.033-9.073 18.477l2.687 3.523h4.726c2.6 0 5.668-.66 6.82-1.465m131.646-218.785c1.48-.687 2.695-1.84 2.7-2.559.003-.72.434-1.045.957-.722 1.332.823 3.05-2.757 3.05-6.356 0-3.61-1.947-8.264-3.146-7.523-.47.29-.854-.101-.854-.87 0-4.596-10.103-4.817-14.6-.32-8.912 8.912.603 23.593 11.893 18.35m908.937 404.7c-9.445-2.543-13.326-5.535-19.584-15.098l-3.175-4.852-117.986-.198c-64.892-.109-118.71-.221-119.598-.25-1.44-.047-29.106-53.763-31.316-60.802-.388-1.238-1.126-2.25-1.638-2.25-.513 0-.933-.563-.933-1.25s-2.7-6.801-6-13.586-6-12.748-6-13.25-.45-.914-1-.914-1-.405-1-.9-3.98-9.157-8.846-19.25-11.053-23.072-13.75-28.843-6.554-13.646-8.57-17.5l-3.666-7.007h-49.834c-27.409 0-68.892.225-92.186.5l-42.352.5-2.148 4c-3.655 6.806-7.637 11.317-12.998 14.726l-5.15 3.274h-20l-5.5-3.099c-21.297-11.999-22.237-39.658-1.819-53.524l6.31-4.284 8.6-.412c12.675-.606 21.482 4.11 28.558 15.296l2.733 4.32 34.059-.395c98.23-1.142 162.514-1.16 163.421-.046 1.51 1.853 7.576 14.112 40.646 82.144 4.545 9.35 15.493 31.738 24.329 49.75L1292.9 1474h228.89l3.207-4.997c17.218-26.831 56.094-17.006 57.8 14.607l.438 8.11-3.054 6.39c-3.425 7.167-8.372 12.89-11.14 12.89-.573 0-1.042.377-1.042.837 0 2.91-17.003 4.704-24.77 2.613zm14.23-19.998c7.814-3.708 7.527-15.822-.471-19.958-8.164-4.221-16.018 1.093-15.967 10.803.046 8.686 8.042 13.14 16.438 9.155m-566.677-164.013c7.545-5.284 6.093-16.44-2.619-20.126-8.53-3.61-17.208 5.524-13.998 14.732 2.073 5.948 11.47 9 16.617 5.394M513 1290.5c0-.275.225-.5.5-.5s.5.225.5.5-.225.5-.5.5a.5.5 0 0 1-.5-.5m291-184c0-.275.225-.5.5-.5s.5.225.5.5-.225.5-.5.5a.5.5 0 0 1-.5-.5m-182-39c0-.275.225-.5.5-.5s.5.225.5.5-.225.5-.5.5a.5.5 0 0 1-.5-.5m398-188c0-.275.225-.5.5-.5s.5.225.5.5-.225.5-.5.5a.5.5 0 0 1-.5-.5" transform="translate(-465, -566)"/>
  </g>
  
  <!-- Text Content -->
  <g transform="translate(210, 75)">
    <text font-family="'JetBrains Mono', 'Cascadia Code', monospace" font-size="36" font-weight="700" fill="#ffffff" letter-spacing="-1">
      <tspan class="letter" style="animation-delay: 0.5s">A</tspan><tspan class="letter" style="animation-delay: 0.65s">l</tspan><tspan class="letter" style="animation-delay: 0.8s">b</tspan><tspan class="letter" style="animation-delay: 0.95s">o</tspan><tspan class="letter" style="animation-delay: 1.1s">r</tspan><tspan class="letter" style="animation-delay: 1.25s">n</tspan><tspan class="letter" style="animation-delay: 1.4s">o</tspan><tspan class="letter" style="animation-delay: 1.55s">z</tspan><tspan class="letter" style="animation-delay: 1.7s"> </tspan><tspan class="letter" style="animation-delay: 1.85s">S</tspan><tspan class="letter" style="animation-delay: 2s">t</tspan><tspan class="letter" style="animation-delay: 2.15s">u</tspan><tspan class="letter" style="animation-delay: 2.3s">d</tspan><tspan class="letter" style="animation-delay: 2.45s">i</tspan><tspan class="letter" style="animation-delay: 2.6s">o</tspan>
    </text>
    <text y="32" font-family="'JetBrains Mono', 'Cascadia Code', monospace" font-size="13" fill="#737373" letter-spacing="0.5">
      <tspan class="letter" style="animation-delay: 2.75s">S</tspan><tspan class="letter" style="animation-delay: 2.85s">o</tspan><tspan class="letter" style="animation-delay: 2.95s">f</tspan><tspan class="letter" style="animation-delay: 3.05s">t</tspan><tspan class="letter" style="animation-delay: 3.15s">w</tspan><tspan class="letter" style="animation-delay: 3.25s">a</tspan><tspan class="letter" style="animation-delay: 3.35s">r</tspan><tspan class="letter" style="animation-delay: 3.45s">e</tspan><tspan class="letter" style="animation-delay: 3.55s"> </tspan><tspan class="letter" style="animation-delay: 3.65s">A</tspan><tspan class="letter" style="animation-delay: 3.75s">r</tspan><tspan class="letter" style="animation-delay: 3.85s">c</tspan><tspan class="letter" style="animation-delay: 3.95s">h</tspan><tspan class="letter" style="animation-delay: 4.05s">i</tspan><tspan class="letter" style="animation-delay: 4.15s">t</tspan><tspan class="letter" style="animation-delay: 4.25s">e</tspan><tspan class="letter" style="animation-delay: 4.35s">c</tspan><tspan class="letter" style="animation-delay: 4.45s">t</tspan><tspan class="letter" style="animation-delay: 4.55s">u</tspan><tspan class="letter" style="animation-delay: 4.65s">r</tspan><tspan class="letter" style="animation-delay: 4.75s">e</tspan><tspan class="letter" style="animation-delay: 4.85s"> </tspan><tspan class="letter" style="animation-delay: 4.95s"> </tspan><tspan class="letter" style="animation-delay: 5.05s">·</tspan><tspan class="letter" style="animation-delay: 5.15s"> </tspan><tspan class="letter" style="animation-delay: 5.25s"> </tspan><tspan class="letter" style="animation-delay: 5.35s">F</tspan><tspan class="letter" style="animation-delay: 5.45s">u</tspan><tspan class="letter" style="animation-delay: 5.55s">l</tspan><tspan class="letter" style="animation-delay: 5.65s">l</tspan><tspan class="letter" style="animation-delay: 5.75s">-</tspan><tspan class="letter" style="animation-delay: 5.85s">S</tspan><tspan class="letter" style="animation-delay: 5.95s">t</tspan><tspan class="letter" style="animation-delay: 6.05s">a</tspan><tspan class="letter" style="animation-delay: 6.15s">c</tspan><tspan class="letter" style="animation-delay: 6.25s">k</tspan><tspan class="letter" style="animation-delay: 6.35s"> </tspan><tspan class="letter" style="animation-delay: 6.45s">D</tspan><tspan class="letter" style="animation-delay: 6.55s">e</tspan><tspan class="letter" style="animation-delay: 6.65s">v</tspan><tspan class="letter" style="animation-delay: 6.75s">e</tspan><tspan class="letter" style="animation-delay: 6.85s">l</tspan><tspan class="letter" style="animation-delay: 6.95s">o</tspan><tspan class="letter" style="animation-delay: 7.05s">p</tspan><tspan class="letter" style="animation-delay: 7.15s">m</tspan><tspan class="letter" style="animation-delay: 7.25s">e</tspan><tspan class="letter" style="animation-delay: 7.35s">n</tspan><tspan class="letter" style="animation-delay: 7.45s">t</tspan>
    </text>
    
    <!-- Tech badges - minimal style -->
    <g transform="translate(0, 55)">
      <rect x="0" y="0" width="78" height="22" rx="4" fill="transparent" stroke="#404040" stroke-width="1"/>
      <text x="39" y="15" text-anchor="middle" font-family="'JetBrains Mono', monospace" font-size="10" fill="#a3a3a3">TypeScript</text>
      
      <rect x="88" y="0" width="58" height="22" rx="4" fill="transparent" stroke="#404040" stroke-width="1"/>
      <text x="117" y="15" text-anchor="middle" font-family="'JetBrains Mono', monospace" font-size="10" fill="#a3a3a3">Python</text>
      
      <rect x="156" y="0" width="75" height="22" rx="4" fill="transparent" stroke="#404040" stroke-width="1"/>
      <text x="193" y="15" text-anchor="middle" font-family="'JetBrains Mono', monospace" font-size="10" fill="#a3a3a3">PostgreSQL</text>
      
      <rect x="241" y="0" width="48" height="22" rx="4" fill="transparent" stroke="#404040" stroke-width="1"/>
      <text x="265" y="15" text-anchor="middle" font-family="'JetBrains Mono', monospace" font-size="10" fill="#a3a3a3">Astro</text>
      
      <rect x="299" y="0" width="52" height="22" rx="4" fill="transparent" stroke="#404040" stroke-width="1"/>
      <text x="325" y="15" text-anchor="middle" font-family="'JetBrains Mono', monospace" font-size="10" fill="#a3a3a3">Docker</text>
    </g>
  </g>
  
  <!-- Minimal accent line -->
  <line x1="60" y1="180" x2="740" y2="180" stroke="#262626" stroke-width="1"/>
</svg>
